<?xml version="1.0" standalone="no"?><!DOCTYPE svg PUBLIC "-//W3C//DTD SVG 1.1//EN" "http://www.w3.org/Graphics/SVG/1.1/DTD/svg11.dtd"><svg t="1627284272759" class="icon" viewBox="0 0 1024 1024" version="1.1" xmlns="http://www.w3.org/2000/svg" p-id="7384" xmlns:xlink="http://www.w3.org/1999/xlink" width="200" height="200"><defs><style type="text/css">@font-face { font-family: feedback-iconfont; src: url("//at.alicdn.com/t/font_1031158_1uhr8ri0pk5.eot?#iefix") format("embedded-opentype"), url("//at.alicdn.com/t/font_1031158_1uhr8ri0pk5.woff2") format("woff2"), url("//at.alicdn.com/t/font_1031158_1uhr8ri0pk5.woff") format("woff"), url("//at.alicdn.com/t/font_1031158_1uhr8ri0pk5.ttf") format("truetype"), url("//at.alicdn.com/t/font_1031158_1uhr8ri0pk5.svg#iconfont") format("svg"); }
</style></defs><path d="M512 512m-414 0a414 414 0 1 0 828 0 414 414 0 1 0-828 0Z" fill="#F0C48A" p-id="7385"></path><path d="M571.232 356.474l52.246-185.628H400.522l52.246 185.628c-111.552 40.696-194.488 189.174-194.488 308.904 0 140.126 113.594 187.776 253.72 187.776s253.72-47.65 253.72-187.776c0-119.73-82.936-268.206-194.488-308.904z" fill="#D3E6F8" p-id="7386"></path><path d="M623.478 170.846h-65.564v185.628h13.318z" fill="#A4CFF2" p-id="7387"></path><path d="M571.232 356.474c68.654 64.78 129.608 194.48 129.608 282.952 0 128.424-105.374 200.958-230.84 212.18 13.664 1.042 27.69 1.548 42 1.548 140.126 0 253.72-47.65 253.72-187.776 0-119.73-82.936-268.206-194.488-308.904z" fill="#A4CFF2" p-id="7388"></path><path d="M512 865.154c-78.58 0-141.12-14.546-185.882-43.238-52.976-33.956-79.836-86.622-79.836-156.54 0-115.54 76.692-266.99 192.002-316.076l-49.312-175.204a12 12 0 0 1 11.552-15.252H623.48a12.004 12.004 0 0 1 11.552 15.252l-49.314 175.21c51.118 21.858 98.67 66.104 134.854 125.758 36.322 59.88 57.152 129.246 57.152 190.31 0 69.918-26.862 122.584-79.836 156.54-44.768 28.694-107.308 43.24-185.888 43.24zM416.366 182.846l47.954 170.376a12 12 0 0 1-7.438 14.526c-49.922 18.212-97.13 60.746-132.928 119.764-34.11 56.236-53.672 121.064-53.672 177.866 0 61.208 23.144 107.078 68.788 136.334 40.834 26.172 99.018 39.444 172.932 39.444s132.096-13.272 172.932-39.444c45.644-29.256 68.788-75.124 68.788-136.334 0-56.8-19.562-121.628-53.672-177.866-35.798-59.018-83.006-101.55-132.928-119.764a12 12 0 0 1-7.438-14.526l47.954-170.376h-191.272z" fill="#4C4372" p-id="7389"></path><path d="M517.1 509.486a10.364 10.364 0 0 1 10.442 10.442v5.342c14.328 1.7 26.468 6.312 37.638 13.356 3.886 2.186 7.286 5.828 7.286 11.656 0 7.528-6.072 13.356-13.598 13.356-2.428 0-4.856-0.728-7.286-2.186-8.5-5.1-16.754-8.742-25.01-10.686v46.624c36.91 9.228 52.694 24.042 52.694 50.024 0 26.71-20.882 44.438-51.722 47.352v14.57c0 5.828-4.614 10.442-10.442 10.442s-10.684-4.614-10.684-10.442v-15.056c-18.212-1.942-34.966-8.498-49.78-18.94-4.128-2.672-6.556-6.556-6.556-11.656 0-7.528 5.828-13.356 13.356-13.356 2.914 0 5.828 0.97 8.014 2.672 11.414 8.256 22.584 13.84 35.938 16.27v-47.838c-35.454-9.228-51.966-22.584-51.966-50.024 0-25.982 20.64-43.952 50.994-46.378v-5.1c-0.002-5.83 4.854-10.444 10.682-10.444z m-9.712 82.806v-42.982c-15.542 1.458-23.312 9.714-23.312 20.398 0 10.198 4.614 16.51 23.312 22.584z m19.184 33.75v44.196c15.542-1.7 24.04-9.47 24.04-21.126 0-10.684-5.344-17.24-24.04-23.07z" fill="#4C4372" p-id="7390"></path><path d="M614.384 312.188H409.616c-12.23 0-22.144 9.914-22.144 22.144 0 12.23 9.914 22.144 22.144 22.144h204.766c12.23 0 22.144-9.914 22.144-22.144 0-12.23-9.914-22.144-22.142-22.144z" fill="#FD919E" p-id="7391"></path><path d="M614.384 312.188h-56.468v44.286h56.468c12.23 0 22.144-9.914 22.144-22.144-0.002-12.228-9.916-22.142-22.144-22.142z" fill="#E8677D" p-id="7392"></path><path d="M614.384 368.474H409.616c-18.826 0-34.142-15.316-34.142-34.142 0-18.828 15.316-34.144 34.142-34.144h204.768c18.826 0 34.142 15.316 34.142 34.142 0 18.828-15.316 34.144-34.142 34.144z m-204.768-44.286a10.154 10.154 0 0 0-10.142 10.142 10.154 10.154 0 0 0 10.142 10.144h204.768a10.154 10.154 0 0 0 10.142-10.142 10.154 10.154 0 0 0-10.142-10.144H409.616z" fill="#4C4372" p-id="7393"></path></svg>